# xmcd
#
# Track frame offsets:
#   150
#   17935
#   34865
#   48822
#   62047
#   71885
#   100835
#   111625
#   125240
#   136105
#   152572
#   168107
#   187925
#   202510
#   214287
#   226917
#   243435
#   258307
#   274630
#   290577
#   304335
#   316365
#
# Disc length: 4426 seconds
#
# Revision: 0
# Processed by: cddbd v1.5.2PL0 Copyright (c) Steve Scherf et al.
# Submitted via: uFREEDB ActiveX Control 1.5
#
DISCID=3f114816
DTITLE=The Fraternity of Man - The Fraternity of Man/Get It On
DYEAR=1968
DGENRE=Blues
TTITLE0=In the morning
TTITLE1=Plastic rat
TTITLE2=Don't bogart me
TTITLE3=Stop me citate me
TTITLE4=Bikini baby
TTITLE5=Oh no I don't believe it
TTITLE6=Wispy paisley skies
TTITLE7=Field day
TTITLE8=Just doin' our job
TTITLE9=Blue guitar
TTITLE10=Last call for alcohol
TTITLE11=Candy striped lion's tails
TTITLE12=Boo man
TTITLE13=Don't start me talkin'
TTITLE14=Pool of tears
TTITLE15=The thobber
TTITLE16=Cat's squirrel
TTITLE17=Too high to eat
TTITLE18=Forget her
TTITLE19=Coco lollipop
TTITLE20=Trick bag
TTITLE21=Mellow token
EXTD=
EXTT0=
EXTT1=
EXTT2=
EXTT3=
EXTT4=
EXTT5=
EXTT6=
EXTT7=
EXTT8=
EXTT9=
EXTT10=
EXTT11=
EXTT12=
EXTT13=
EXTT14=
EXTT15=
EXTT16=
EXTT17=
EXTT18=
EXTT19=
EXTT20=
EXTT21=
PLAYORDER=
